<svg width="20" height="20" viewBox="0 0 20 20" fill="none" xmlns="http://www.w3.org/2000/svg">
<g clip-path="url(#clip0_1_25)">
<path d="M18.4369 10.8629V7.79107L19.2588 7.11607C19.2973 7.0859 19.328 7.04683 19.3481 7.00219C19.3683 6.95756 19.3773 6.9087 19.3744 6.85982C19.3711 6.81073 19.3567 6.76302 19.3324 6.72027C19.308 6.67752 19.2743 6.64083 19.2338 6.61294L10.1713 0.675443C10.1197 0.643275 10.0601 0.626221 9.99938 0.626221C9.93861 0.626221 9.87906 0.643275 9.8275 0.675443L0.764999 6.61294C0.724461 6.64083 0.690754 6.67752 0.666401 6.72027C0.642049 6.76302 0.627681 6.81073 0.624374 6.85982C0.621467 6.9087 0.63047 6.95756 0.65061 7.00219C0.67075 7.04683 0.701425 7.0859 0.739999 7.11607L4.06188 9.83482V10.0129C3.6431 10.9025 3.42957 11.8749 3.43707 12.8581C3.44457 13.8413 3.6729 14.8102 4.1052 15.6933C4.5375 16.5765 5.16271 17.3511 5.93464 17.9601C6.70656 18.5691 7.60546 18.9969 8.56493 19.2118C9.52439 19.4268 10.5199 19.4233 11.4778 19.2018C12.4358 18.9803 13.3317 18.5464 14.0995 17.9321C14.8672 17.3178 15.487 16.5388 15.9133 15.6527C16.3395 14.7667 16.5611 13.7962 16.5619 12.8129C16.5644 11.8447 16.3509 10.8882 15.9369 10.0129V9.83482L17.8119 8.30044V10.8629L17.0463 12.3942C16.9748 12.5373 16.9412 12.6962 16.9485 12.856C16.9559 13.0157 17.0039 13.1709 17.0882 13.3068C17.1724 13.4428 17.29 13.5549 17.4298 13.6325C17.5696 13.7102 17.727 13.7508 17.8869 13.7504H18.3619C18.5218 13.7508 18.6791 13.7102 18.8189 13.6325C18.9587 13.5549 19.0763 13.4428 19.1606 13.3068C19.2448 13.1709 19.2929 13.0157 19.3002 12.856C19.3076 12.6962 19.2739 12.5373 19.2025 12.3942L18.4369 10.8629ZM7.50563 12.5004C7.51616 11.2508 7.74022 10.0121 8.16813 8.83794C8.77667 8.77776 9.38787 8.74855 9.99938 8.75044C10.6109 8.74855 11.2221 8.77776 11.8306 8.83794C12.2585 10.0121 12.4826 11.2508 12.4931 12.5004H7.50563ZM12.4931 13.1254C12.4799 14.0889 12.3487 15.047 12.1025 15.9786C10.7399 15.5077 9.25881 15.5077 7.89625 15.9786C7.65009 15.047 7.5189 14.0889 7.50563 13.1254H12.4931ZM9.99938 8.12544C7.86188 8.12544 5.715 8.46607 4.68688 9.11919V7.18794C4.68688 6.76294 6.56188 5.93794 9.99938 5.93794C13.4369 5.93794 15.3119 6.76294 15.3119 7.18794V9.11919C14.2838 8.46607 12.1369 8.12544 9.99938 8.12544ZM7.46813 8.92232C7.0921 10.0784 6.894 11.2849 6.88063 12.5004H4.07125C4.10987 11.7093 4.30868 10.9343 4.65563 10.2223C4.67664 10.1796 4.68734 10.1325 4.68688 10.0848V10.0004C4.68688 9.69732 5.65563 9.18794 7.46813 8.92232ZM4.0775 13.1254H6.88063C6.89543 14.1667 7.04137 15.2019 7.315 16.2067C6.80358 16.4375 6.32367 16.7326 5.88688 17.0848C4.80147 16.0437 4.15432 14.6275 4.0775 13.1254V13.1254ZM6.36813 17.5004C6.71976 17.2259 7.10136 16.9922 7.50563 16.8036C7.71688 17.4335 8.03856 18.0208 8.45563 18.5379C7.69769 18.3345 6.98799 17.9817 6.36813 17.5004ZM9.99938 18.7504C9.29938 18.7504 8.57125 17.9442 8.08375 16.5754C9.32408 16.1421 10.6747 16.1421 11.915 16.5754C11.4275 17.9442 10.6994 18.7504 9.99938 18.7504ZM11.5431 18.5379C11.9602 18.0208 12.2819 17.4335 12.4931 16.8036C12.8974 16.9922 13.279 17.2259 13.6306 17.5004C13.0108 17.9817 12.3011 18.3345 11.5431 18.5379V18.5379ZM14.1119 17.0848C13.6751 16.7326 13.1952 16.4375 12.6838 16.2067C12.9574 15.2019 13.1033 14.1667 13.1181 13.1254H15.9213C15.8444 14.6275 15.1973 16.0437 14.1119 17.0848ZM13.1181 12.5004C13.1048 11.2849 12.9067 10.0784 12.5306 8.92232C14.3431 9.18794 15.3119 9.69732 15.3119 10.0004V10.0848C15.3114 10.1325 15.3221 10.1796 15.3431 10.2223C15.6901 10.9343 15.8889 11.7093 15.9275 12.5004H13.1181ZM15.9369 9.02857V7.18794C15.9369 5.95669 12.9494 5.31294 9.99938 5.31294C7.04938 5.31294 4.06188 5.95669 4.06188 7.18794V9.02857L1.465 6.90357L9.99938 1.31294L18.5338 6.90357L15.9369 9.02857ZM18.6275 12.9786C18.6001 13.0243 18.5612 13.062 18.5145 13.0878C18.4678 13.1136 18.4152 13.1266 18.3619 13.1254H17.8869C17.8336 13.1266 17.7809 13.1136 17.7343 13.0878C17.6876 13.062 17.6486 13.0243 17.6213 12.9786C17.5928 12.9331 17.5764 12.8811 17.5737 12.8275C17.5709 12.7739 17.5819 12.7205 17.6056 12.6723L18.1244 11.6379L18.6431 12.6723C18.6668 12.7205 18.6778 12.7739 18.6751 12.8275C18.6724 12.8811 18.656 12.9331 18.6275 12.9786V12.9786Z" fill="#3577F6"/>
</g>
<defs>
<clipPath id="clip0_1_25">
<rect width="20" height="20" fill="white"/>
</clipPath>
</defs>
</svg>
