<svg width="20" height="20" viewBox="0 0 20 20" fill="none" xmlns="http://www.w3.org/2000/svg">
<g clip-path="url(#clip0_1_62)">
<path d="M18.4369 10.8629V7.79107L19.2587 7.11607C19.2973 7.0859 19.328 7.04683 19.3481 7.00219C19.3683 6.95756 19.3773 6.9087 19.3744 6.85982C19.3711 6.81073 19.3567 6.76302 19.3323 6.72027C19.308 6.67752 19.2743 6.64083 19.2337 6.61294L10.1712 0.675443C10.1197 0.643275 10.0601 0.626221 9.99936 0.626221C9.93859 0.626221 9.87904 0.643275 9.82749 0.675443L0.764984 6.61294C0.724445 6.64083 0.690738 6.67752 0.666386 6.72027C0.642033 6.76302 0.627666 6.81073 0.624359 6.85982C0.621452 6.9087 0.630455 6.95756 0.650595 7.00219C0.670735 7.04683 0.701409 7.0859 0.739984 7.11607L4.06186 9.83482V10.0129C3.64308 10.9025 3.42955 11.8749 3.43705 12.8581C3.44455 13.8413 3.67289 14.8102 4.10519 15.6933C4.53748 16.5765 5.1627 17.3511 5.93462 17.9601C6.70654 18.5691 7.60545 18.9969 8.56491 19.2118C9.52437 19.4268 10.5199 19.4233 11.4778 19.2018C12.4358 18.9803 13.3317 18.5464 14.0994 17.9321C14.8672 17.3178 15.487 16.5388 15.9132 15.6527C16.3395 14.7667 16.5611 13.7962 16.5619 12.8129C16.5644 11.8447 16.3509 10.8882 15.9369 10.0129V9.83482L17.8119 8.30044V10.8629L17.0462 12.3942C16.9748 12.5373 16.9412 12.6962 16.9485 12.856C16.9558 13.0157 17.0039 13.1709 17.0882 13.3068C17.1724 13.4428 17.29 13.5549 17.4298 13.6325C17.5696 13.7102 17.727 13.7508 17.8869 13.7504H18.3619C18.5218 13.7508 18.6791 13.7102 18.8189 13.6325C18.9587 13.5549 19.0763 13.4428 19.1606 13.3068C19.2448 13.1709 19.2929 13.0157 19.3002 12.856C19.3076 12.6962 19.2739 12.5373 19.2025 12.3942L18.4369 10.8629ZM7.50561 12.5004C7.51614 11.2508 7.7402 10.0121 8.16811 8.83794C8.77665 8.77776 9.38786 8.74855 9.99936 8.75044C10.6109 8.74855 11.2221 8.77776 11.8306 8.83794C12.2585 10.0121 12.4826 11.2508 12.4931 12.5004H7.50561ZM12.4931 13.1254C12.4798 14.0889 12.3487 15.047 12.1025 15.9786C10.7399 15.5077 9.25879 15.5077 7.89624 15.9786C7.65007 15.047 7.51889 14.0889 7.50561 13.1254H12.4931ZM9.99936 8.12544C7.86186 8.12544 5.71499 8.46607 4.68686 9.11919V7.18794C4.68686 6.76294 6.56186 5.93794 9.99936 5.93794C13.4369 5.93794 15.3119 6.76294 15.3119 7.18794V9.11919C14.2837 8.46607 12.1369 8.12544 9.99936 8.12544ZM7.46811 8.92232C7.09208 10.0784 6.89399 11.2849 6.88061 12.5004H4.07124C4.10986 11.7093 4.30866 10.9343 4.65561 10.2223C4.67662 10.1796 4.68733 10.1325 4.68686 10.0848V10.0004C4.68686 9.69732 5.65561 9.18794 7.46811 8.92232ZM4.07749 13.1254H6.88061C6.89541 14.1667 7.04135 15.2019 7.31499 16.2067C6.80356 16.4375 6.32365 16.7326 5.88686 17.0848C4.80146 16.0437 4.15431 14.6275 4.07749 13.1254V13.1254ZM6.36811 17.5004C6.71974 17.2259 7.10134 16.9922 7.50561 16.8036C7.71686 17.4335 8.03855 18.0208 8.45561 18.5379C7.69768 18.3345 6.98798 17.9817 6.36811 17.5004ZM9.99936 18.7504C9.29936 18.7504 8.57124 17.9442 8.08374 16.5754C9.32406 16.1421 10.6747 16.1421 11.915 16.5754C11.4275 17.9442 10.6994 18.7504 9.99936 18.7504ZM11.5431 18.5379C11.9602 18.0208 12.2819 17.4335 12.4931 16.8036C12.8974 16.9922 13.279 17.2259 13.6306 17.5004C13.0107 17.9817 12.301 18.3345 11.5431 18.5379V18.5379ZM14.1119 17.0848C13.6751 16.7326 13.1952 16.4375 12.6837 16.2067C12.9574 15.2019 13.1033 14.1667 13.1181 13.1254H15.9212C15.8444 14.6275 15.1973 16.0437 14.1119 17.0848ZM13.1181 12.5004C13.1047 11.2849 12.9066 10.0784 12.5306 8.92232C14.3431 9.18794 15.3119 9.69732 15.3119 10.0004V10.0848C15.3114 10.1325 15.3221 10.1796 15.3431 10.2223C15.6901 10.9343 15.8889 11.7093 15.9275 12.5004H13.1181ZM15.9369 9.02857V7.18794C15.9369 5.95669 12.9494 5.31294 9.99936 5.31294C7.04936 5.31294 4.06186 5.95669 4.06186 7.18794V9.02857L1.46498 6.90357L9.99936 1.31294L18.5337 6.90357L15.9369 9.02857ZM18.6275 12.9786C18.6001 13.0243 18.5611 13.062 18.5145 13.0878C18.4678 13.1136 18.4152 13.1266 18.3619 13.1254H17.8869C17.8336 13.1266 17.7809 13.1136 17.7343 13.0878C17.6876 13.062 17.6486 13.0243 17.6212 12.9786C17.5928 12.9331 17.5764 12.8811 17.5736 12.8275C17.5709 12.7739 17.5819 12.7205 17.6056 12.6723L18.1244 11.6379L18.6431 12.6723C18.6668 12.7205 18.6778 12.7739 18.6751 12.8275C18.6724 12.8811 18.656 12.9331 18.6275 12.9786V12.9786Z" fill="#D72DF3"/>
</g>
<defs>
<clipPath id="clip0_1_62">
<rect width="20" height="20" fill="white"/>
</clipPath>
</defs>
</svg>
